# xmcd CD database file
#
# Track frame offsets:
#	150
#	19114
#	37963
#	60895
#	74571
#	87894
#	111276
#	122730
#	140059
#	151315
#	165968
#
# Disc length: 2575 seconds
#
# Revision: 0
# Processed by: cddbd v1.4PL0 Copyright (c) Steve Scherf et al.
# Submitted via: CDex 1.50
#
DISCID=890a0d0b
DTITLE=Emilio Castillo - The Midnight Dance
DYEAR=1998
DGENRE=New Age
TTITLE0=Rambla
TTITLE1=Fire and Wine
TTITLE2=Cueva
TTITLE3=Jonathon
TTITLE4=Torreon
TTITLE5=The Midnight Dance
TTITLE6=Sea Cove
TTITLE7=El Tiempo
TTITLE8=Sol y Mar
TTITLE9=Noche Gitana
TTITLE10=La Pineda
EXTD=YEAR: 1998
EXTT0=
EXTT1=
EXTT2=
EXTT3=
EXTT4=
EXTT5=
EXTT6=
EXTT7=
EXTT8=
EXTT9=
EXTT10=
PLAYORDER=
